<?xml version="1.0" encoding="utf-8"?>
<!-- Generator: Adobe Illustrator 16.0.0, SVG Export Plug-In . SVG Version: 6.00 Build 0)  -->
<!DOCTYPE svg PUBLIC "-//W3C//DTD SVG 1.1//EN" "http://www.w3.org/Graphics/SVG/1.1/DTD/svg11.dtd">
<svg version="1.1" xmlns="http://www.w3.org/2000/svg" xmlns:xlink="http://www.w3.org/1999/xlink" x="0px" y="0px" width="72px"
	 height="72px" viewBox="0 0 72 72" enable-background="new 0 0 72 72" xml:space="preserve">
<g id="grids">
</g>
<g id="Layer_2">
	<g id="Add_Favorite">
	</g>
	<g id="Panel_x5F_CloseButtonOver">
	</g>
	<g>
		<path opacity="0.4" fill="#F1F1F2" d="M35.702,58.421c-2.489-0.001-4.995-1.629-7.206-3.065c-1.252-0.813-2.435-1.581-3.613-2.081
			c-3.029-1.283-7.691-1.384-9.048-1.384l-0.275,0.002c-2.988,0-5.448-2.459-5.448-5.482v-27.35c0-3.022,2.46-5.481,5.483-5.481
			h40.214c3.023,0,5.483,2.459,5.483,5.481v27.35c0,3.023-2.46,5.482-5.483,5.482l-0.24-0.002c-1.356,0-6.019,0.101-9.048,1.384
			c-1.18,0.5-2.361,1.269-3.613,2.081C40.696,56.792,38.19,58.42,35.702,58.421z"/>
		<path opacity="0.8" fill="none" stroke="#084F60" stroke-width="3" stroke-miterlimit="10" d="M35.702,58.421
			c-2.489-0.001-4.995-1.629-7.206-3.065c-1.252-0.813-2.435-1.581-3.613-2.081c-3.029-1.283-7.691-1.384-9.048-1.384l-0.275,0.002
			c-2.988,0-5.448-2.459-5.448-5.482v-27.35c0-3.022,2.46-5.481,5.483-5.481h40.214c3.023,0,5.483,2.459,5.483,5.481v27.35
			c0,3.023-2.46,5.482-5.483,5.482l-0.24-0.002c-1.356,0-6.019,0.101-9.048,1.384c-1.18,0.5-2.361,1.269-3.613,2.081
			C40.696,56.792,38.19,58.42,35.702,58.421z"/>
	</g>
</g>
</svg>
