<?xml version="1.0" encoding="utf-8"?>
<!-- Generator: Adobe Illustrator 16.0.0, SVG Export Plug-In . SVG Version: 6.00 Build 0)  -->
<!DOCTYPE svg PUBLIC "-//W3C//DTD SVG 1.1//EN" "http://www.w3.org/Graphics/SVG/1.1/DTD/svg11.dtd">
<svg version="1.1" xmlns="http://www.w3.org/2000/svg" xmlns:xlink="http://www.w3.org/1999/xlink" x="0px" y="0px" width="72px"
	 height="72px" viewBox="0 0 72 72" enable-background="new 0 0 72 72" xml:space="preserve">
<g id="grids">
</g>
<g id="Layer_2">
	<g id="Add_Favorite">
	</g>
	<g id="Panel_x5F_CloseButtonOver">
	</g>
	<g opacity="0.9">
		<path opacity="0.4" fill="#F1F1F2" d="M35.702,58.421c-2.489,0-4.995-1.629-7.206-3.065c-1.252-0.813-2.435-1.581-3.613-2.081
			c-3.029-1.284-7.691-1.384-9.048-1.384l-0.275,0.002c-2.988,0-5.448-2.46-5.448-5.483v-27.35c0-3.022,2.46-5.481,5.483-5.481
			h40.214c3.023,0,5.483,2.459,5.483,5.481v27.35c0,3.023-2.46,5.482-5.483,5.482l-0.24-0.001c-1.356,0-6.019,0.1-9.048,1.384
			c-1.18,0.5-2.361,1.268-3.613,2.081C40.696,56.792,38.19,58.42,35.702,58.421z"/>
		<path opacity="0.8" fill="none" stroke="#084F60" stroke-width="3" stroke-miterlimit="10" d="M35.702,58.421
			c-2.489,0-4.995-1.629-7.206-3.065c-1.252-0.813-2.435-1.581-3.613-2.081c-3.029-1.284-7.691-1.384-9.048-1.384l-0.275,0.002
			c-2.988,0-5.448-2.46-5.448-5.483v-27.35c0-3.022,2.46-5.481,5.483-5.481h40.214c3.023,0,5.483,2.459,5.483,5.481v27.35
			c0,3.023-2.46,5.482-5.483,5.482l-0.24-0.001c-1.356,0-6.019,0.1-9.048,1.384c-1.18,0.5-2.361,1.268-3.613,2.081
			C40.696,56.792,38.19,58.42,35.702,58.421z"/>
	</g>
	<g opacity="0.5">
		<defs>
			<path id="SVGID_27_" opacity="0.5" d="M59.793,19.077c0-2.195-1.729-3.998-4.096-3.998H15.483c-2.196,0-3.983,1.786-3.983,3.981
				v27.35c0,2.196,1.771,3.982,3.948,3.982l0.265-0.002c1.438,0,6.353,0.108,9.644,1.502c1.305,0.553,2.539,1.355,3.846,2.205
				c2.036,1.323,4.344,2.822,6.389,2.823c2.044-0.001,4.265-1.365,6.301-2.688c1.324-0.859,3.05-1.89,4.344-2.438
				c3.291-1.395,7.794-1.405,9.222-1.405l0.252,0.002c2.185,0,4.084-1.765,4.084-3.961V19.077z"/>
		</defs>
		<clipPath id="SVGID_2_">
			<use xlink:href="#SVGID_27_"  overflow="visible"/>
		</clipPath>
		<g clip-path="url(#SVGID_2_)">
			<g>
				<g>
					<path fill="#35495E" d="M45.111,30.911l-13.6-7.851c-1.87-1.079-3.4-0.197-3.4,1.963v15.701c0,2.163,1.53,3.047,3.4,1.965
						l13.6-7.851C46.98,33.761,46.98,31.993,45.111,30.911z"/>
				</g>
			</g>
		</g>
	</g>
</g>
</svg>
